<svg width="500" height="500" viewBox="0 0 500 500" fill="none" xmlns="http://www.w3.org/2000/svg">
<path fill-rule="evenodd" clip-rule="evenodd" d="M219.503 60.9273C221.9 61.7136 226.4 63.6707 229.504 65.2782C233.867 67.5363 237.614 67.9504 246.006 67.0997C259.368 65.7479 263.389 68.3505 272.594 84.3086C276.007 90.227 284.227 100.19 290.861 106.449C301.92 116.888 302.922 118.415 302.922 124.867C302.922 130.309 301.331 134.13 295.91 141.706C287.491 153.475 283.829 163.186 283.728 174.008L283.655 182.052L276.777 174.224C272.993 169.918 268.53 163.071 266.856 159.009C265.184 154.945 263.324 151.619 262.723 151.615C255.049 151.568 256.447 178.782 265.226 200.319C274.891 224.033 277.58 239.083 277.655 269.906C277.69 284.737 277.083 303.273 276.308 311.098L274.895 325.324L287.755 324.351C300.189 323.41 300.808 323.549 306.419 328.567C311.544 333.151 312.311 334.996 312.989 344.37C313.647 353.481 313.022 356.535 308.574 365.94C305.723 371.966 298.147 383.89 291.739 392.437C285.33 400.983 278.896 410.281 277.441 413.098L274.794 418.221L279.734 417.349C316.319 410.895 319.136 383.88 329.636 365.94C340.136 348 327.481 366.87 339.481 344.37C351.481 321.87 379.697 306.713 372.981 355.776C369.481 362.25 338.136 406.947 329.636 413.098C321.136 419.248 299.011 440.743 246.433 440.117C169.144 439.195 150.006 435.578 146.493 433.602C144.103 432.257 141.022 430.634 139.645 429.997C135.312 427.991 135.637 424.968 140.691 420.279C145.115 416.177 146.46 415.852 154.728 416.885C159.758 417.515 163.87 417.386 163.865 416.6C163.86 415.813 160.761 411.255 156.977 406.471C142.744 388.478 134.799 376.624 131.205 368.019C124.136 351.097 124.099 337.484 131.101 329.055C134.318 325.183 135.979 324.722 146.252 324.845C152.599 324.922 159.355 325.313 161.267 325.715C163.248 326.131 164.583 325.593 164.373 324.464C164.169 323.375 163.054 310.363 161.893 295.548C158.641 254.023 161.967 231.044 176.793 192.647C181.94 179.318 182.155 170.238 177.344 169.327C174.695 168.824 174.303 170.237 174.303 180.241C174.303 186.764 173.124 194.529 171.579 198.2L168.855 204.668L164.571 195.7C160.189 186.523 155.274 181.941 140.971 173.695C130.875 167.872 125.636 161.387 125.636 154.71C125.636 151.89 128.127 143.971 131.172 137.113C135.486 127.395 136.925 121.313 137.69 109.558C138.875 91.3404 142.115 86.5736 154.457 84.8809C160.886 83.9989 163.811 82.2123 171.311 74.5855C177.572 68.2165 182.811 64.6397 188.207 63.0479C198.097 60.1288 213.827 59.0641 219.503 60.9273Z" fill="#080809"/>
</svg>
